<?xml version="1.0" standalone="no"?>
<!DOCTYPE svg PUBLIC "-//W3C//DTD SVG 20010904//EN"
 "http://www.w3.org/TR/2001/REC-SVG-20010904/DTD/svg10.dtd">
<svg version="1.0" xmlns="http://www.w3.org/2000/svg"
 width="800.000000pt" height="800.000000pt" viewBox="0 0 800.000000 800.000000"
 preserveAspectRatio="xMidYMid meet">

<g transform="translate(0.000000,800.000000) scale(0.100000,-0.100000)"
fill="#000000" stroke="none">
<path d="M933 6380 c-90 -136 -91 -137 -161 -271 -89 -173 -178 -407 -226
-596 -127 -497 -120 -1044 20 -1528 77 -265 223 -585 370 -807 l24 -38 -396 0
c-372 0 -395 -1 -390 -17 2 -10 10 -45 16 -78 15 -79 40 -167 102 -350 297
-886 935 -1658 1758 -2127 491 -280 992 -440 1565 -499 354 -37 813 -16 1140
51 301 62 602 155 810 250 11 5 77 36 147 69 583 274 1131 741 1516 1291 212
304 395 670 500 1000 17 52 38 120 48 150 9 30 25 91 35 135 9 44 21 90 24
103 7 21 5 22 -49 22 -61 0 -64 4 -42 53 8 18 36 94 61 170 180 541 115 1133
-178 1622 -33 55 -70 111 -81 125 -12 14 -35 44 -50 68 l-29 42 -612 0 -612 0
-6 53 c-14 116 -103 443 -151 552 -8 17 -19 47 -26 68 -6 20 -18 44 -27 52 -8
9 -37 61 -65 118 -53 109 -147 270 -160 275 -4 2 -8 7 -8 12 0 5 -18 36 -40
69 l-41 61 -2358 2 -2359 3 -69 -105z m2917 -59 c63 -6 189 -15 280 -21 91 -6
179 -15 195 -20 17 -5 64 -17 105 -26 149 -33 344 -137 469 -250 49 -44 170
-213 172 -239 0 -5 21 -24 47 -41 65 -42 125 -120 152 -195 20 -55 24 -88 27
-244 3 -99 0 -220 -6 -270 -38 -343 -52 -508 -47 -530 4 -14 23 -44 43 -66 64
-71 58 -151 -38 -509 -69 -254 -66 -248 -120 -282 -35 -21 -52 -40 -68 -77
-11 -28 -21 -55 -21 -61 0 -35 -109 -337 -146 -407 -82 -151 -97 -261 -71
-520 14 -138 22 -152 96 -179 102 -38 150 -102 151 -202 0 -31 11 -85 29 -135
61 -174 63 -176 236 -257 61 -29 144 -68 185 -87 41 -20 111 -53 155 -73 44
-21 114 -54 155 -73 142 -66 405 -189 515 -242 61 -28 120 -55 133 -59 12 -4
22 -11 22 -15 0 -17 -206 -186 -350 -287 -527 -370 -1101 -586 -1765 -664
-152 -18 -497 -24 -660 -11 -668 53 -1256 254 -1806 616 -175 116 -439 325
-439 347 0 5 10 12 23 17 12 5 76 35 142 66 264 127 367 175 370 175 2 0 45
20 97 44 161 76 238 111 418 191 196 88 244 116 292 178 56 69 88 170 88 277
0 96 46 159 133 184 83 24 99 48 108 163 4 54 8 155 9 225 0 125 -1 128 -44
250 -25 68 -68 182 -96 253 -28 72 -64 164 -81 205 -19 50 -52 104 -97 161
-65 82 -70 92 -96 195 -15 60 -31 125 -36 144 -21 81 -70 342 -70 369 0 44 19
79 57 102 32 20 33 23 33 82 0 34 -5 103 -10 152 -60 569 -59 552 -43 644 21
125 68 216 164 316 65 67 83 93 109 160 50 125 107 197 220 273 70 47 133 76
212 98 107 30 128 41 128 70 0 19 4 24 18 20 9 -2 37 -8 61 -11 l44 -7 -22 31
c-12 17 -26 33 -31 36 -6 4 -10 13 -10 22 0 17 18 17 280 -6z"/>
</g>
</svg>
